<?xml version="1.0" standalone="no"?>
<!DOCTYPE svg PUBLIC "-//W3C//DTD SVG 20010904//EN"
 "http://www.w3.org/TR/2001/REC-SVG-20010904/DTD/svg10.dtd">
<svg version="1.0" xmlns="http://www.w3.org/2000/svg"
 width="512.000000pt" height="512.000000pt" viewBox="0 0 512.000000 512.000000"
 preserveAspectRatio="xMidYMid meet">

<g transform="translate(0.000000,512.000000) scale(0.100000,-0.100000)"
fill="#000000" stroke="none">
<path d="M223 5101 c-72 -24 -127 -65 -163 -119 -61 -92 -60 -78 -60 -848 0
-501 3 -710 11 -728 16 -35 61 -52 98 -37 43 18 51 48 51 186 l0 125 720 0
720 0 0 -1520 0 -1520 -669 2 c-658 3 -670 3 -697 24 -15 11 -37 33 -48 48
-21 27 -21 38 -26 909 -3 485 -9 889 -13 899 -5 9 -22 22 -38 28 -38 16 -83
-1 -98 -38 -8 -19 -11 -281 -9 -907 l3 -880 26 -56 c33 -69 88 -124 159 -158
l55 -26 1672 -3 1672 -2 37 -71 c46 -88 162 -213 253 -273 316 -210 739 -167
1006 103 286 289 311 738 60 1057 -340 428 -996 397 -1295 -63 -79 -119 -118
-242 -127 -393 -3 -52 -1 -119 5 -148 l9 -52 -88 0 -89 0 0 1520 0 1520 720 0
720 0 0 -1005 c0 -725 3 -1011 11 -1029 26 -56 115 -55 138 2 8 19 11 480 9
1627 l-3 1600 -26 56 c-33 71 -87 125 -158 158 l-56 26 -2220 2 c-2116 2
-2222 2 -2272 -16z m4487 -163 c33 -17 51 -35 68 -68 20 -41 22 -58 22 -217
l0 -173 -1008 0 -1007 0 -53 212 c-30 117 -60 225 -68 240 l-15 28 1009 0
1008 0 44 -22z m-2335 -163 c73 -73 -37 -184 -112 -113 -30 28 -31 83 -1 115
30 32 81 31 113 -2z m-775 -695 l0 -240 -720 0 -720 0 0 240 0 240 720 0 720
0 0 -240z m1600 0 l0 -240 -720 0 -720 0 0 240 0 240 720 0 720 0 0 -240z
m1600 0 l0 -240 -720 0 -720 0 0 240 0 240 720 0 720 0 0 -240z m-1600 -1920
l0 -1520 -720 0 -720 0 0 1520 0 1520 720 0 720 0 0 -1520z m1417 -1142 c16
-15 23 -33 23 -57 0 -33 -14 -50 -182 -218 -229 -229 -209 -225 -354 -81 -93
91 -104 106 -104 137 0 48 32 81 79 81 30 0 45 -9 98 -62 l63 -63 143 143
c128 128 145 142 176 142 22 0 43 -8 58 -22z"/>
<path d="M1964 3508 c-39 -18 -44 -49 -44 -268 0 -222 5 -250 47 -269 16 -8
176 -11 513 -11 337 0 497 3 513 11 42 19 47 47 47 269 0 222 -5 250 -47 269
-32 15 -999 14 -1029 -1z"/>
<path d="M1964 2788 c-39 -18 -44 -49 -44 -268 0 -222 5 -250 47 -269 34 -15
992 -15 1026 0 42 19 47 47 47 269 0 222 -5 250 -47 269 -32 15 -999 14 -1029
-1z m916 -268 l0 -120 -400 0 -400 0 0 120 0 120 400 0 400 0 0 -120z"/>
<path d="M1964 2068 c-39 -18 -44 -49 -44 -268 0 -222 5 -250 47 -269 34 -15
992 -15 1026 0 42 19 47 47 47 269 0 222 -5 250 -47 269 -32 15 -999 14 -1029
-1z m916 -268 l0 -120 -400 0 -400 0 0 120 0 120 400 0 400 0 0 -120z"/>
<path d="M364 3508 c-39 -18 -44 -49 -44 -268 0 -222 5 -250 47 -269 16 -8
176 -11 513 -11 337 0 497 3 513 11 42 19 47 47 47 269 0 222 -5 250 -47 269
-32 15 -999 14 -1029 -1z"/>
<path d="M3564 3508 c-39 -18 -44 -49 -44 -268 0 -222 5 -250 47 -269 16 -8
176 -11 513 -11 337 0 497 3 513 11 42 19 47 47 47 269 0 222 -5 250 -47 269
-32 15 -999 14 -1029 -1z"/>
<path d="M44 3108 c-34 -16 -44 -51 -44 -148 0 -102 11 -134 51 -151 37 -15
82 2 98 37 14 32 14 196 0 227 -11 24 -48 48 -72 46 -7 0 -22 -5 -33 -11z"/>
<path d="M364 2788 c-39 -18 -44 -49 -44 -268 0 -222 5 -250 47 -269 34 -15
992 -15 1026 0 42 19 47 47 47 269 0 222 -5 250 -47 269 -32 15 -999 14 -1029
-1z m916 -268 l0 -120 -400 0 -400 0 0 120 0 120 400 0 400 0 0 -120z"/>
<path d="M3564 2788 c-39 -18 -44 -49 -44 -268 0 -222 5 -250 47 -269 34 -15
992 -15 1026 0 42 19 47 47 47 269 0 222 -5 250 -47 269 -32 15 -999 14 -1029
-1z m916 -268 l0 -120 -400 0 -400 0 0 120 0 120 400 0 400 0 0 -120z"/>
</g>
</svg>
